<?xml version="1.0" encoding="UTF-8"?>
<svg width="1024px" height="1024px" viewBox="0 0 1024 1024" version="1.1" xmlns="http://www.w3.org/2000/svg" xmlns:xlink="http://www.w3.org/1999/xlink" xmlns:sketch="http://www.bohemiancoding.com/sketch/ns">
    <!-- Generator: Sketch 3.4 (15575) - http://www.bohemiancoding.com/sketch -->
    <title>1024</title>
    <desc>Created with Sketch.</desc>
    <defs>
        <path id="path-1" d="M357.009067,0 L666.990933,0 C769.792,0 821.179733,0 876.5184,17.4933333 C936.9344,39.4837333 984.516267,87.0656 1006.50667,147.4816 C1024,202.811733 1024,254.216533 1024,357.009067 L1024,666.990933 C1024,769.792 1024,821.179733 1006.50667,876.5184 C984.516267,936.9344 936.9344,984.516267 876.5184,1006.49813 C821.179733,1024 769.792,1024 666.990933,1024 L357.009067,1024 C254.208,1024 202.811733,1024 147.4816,1006.49813 C87.0656,984.516267 39.4837333,936.9344 17.4933333,876.5184 C0,821.179733 0,769.792 0,666.990933 L0,357.009067 C0,254.216533 0,202.811733 17.4933333,147.4816 C39.4837333,87.0656 87.0656,39.4837333 147.4816,17.4933333 C202.811733,0 254.208,0 357.009067,0 L357.009067,0"></path>
        <linearGradient x1="50%" y1="100%" x2="50%" y2="0%" id="linearGradient-3">
            <stop stop-color="#A86C1B" offset="0%"></stop>
            <stop stop-color="#F8D79A" offset="100%"></stop>
        </linearGradient>
        <rect id="path-4" x="0" y="0" width="1024" height="1024"></rect>
        <linearGradient x1="50%" y1="0%" x2="50%" y2="100%" id="linearGradient-5">
            <stop stop-color="#6B5F48" offset="0%"></stop>
            <stop stop-color="#393123" offset="100%"></stop>
        </linearGradient>
    </defs>
    <g id="Page-1" stroke="none" stroke-width="1" fill="none" fill-rule="evenodd" sketch:type="MSPage">
        <g id="1024" sketch:type="MSArtboardGroup">
            <g id="Group" sketch:type="MSLayerGroup">
                <mask id="mask-2" sketch:name="Mask" fill="white">
                    <use xlink:href="#path-1"></use>
                </mask>
                <use id="Mask" fill="#D7D7D7" sketch:type="MSShapeGroup" xlink:href="#path-1"></use>
                <g id="Rectangle-1">
                    <use fill="url(#linearGradient-3)" fill-rule="evenodd" sketch:type="MSShapeGroup" mask="url(#mask-2)" xlink:href="#path-4"></use>
                    <use fill="none" xlink:href="#path-4"></use>
                </g>
                <g id="literature-+-circled_play" mask="url(#mask-2)">
                    <g transform="translate(112.000000, 112.000000)" id="literature">
                        <g>
                            <g id="Layer_1" sketch:type="MSShapeGroup">
                                <ellipse id="Oval" fill="#393123" cx="400" cy="727.272727" rx="66.6666667" ry="72.7272727"></ellipse>
                                <path d="M733.333333,72.7272727 L733.333333,690.909091 C733.333333,690.909091 633.333333,654.545455 566.666667,654.545455 C500,654.545455 400,690.909091 400,690.909091 C400,690.909091 300,654.545455 233.333333,654.545455 C166.666667,654.545455 66.6666667,690.909091 66.6666667,690.909091 L66.6666667,72.7272727 C29.8333333,72.7272727 0,105.272727 0,145.454545 L0,690.909091 C0,731.090909 29.8333333,763.636364 66.6666667,763.636364 L733.333333,763.636364 C770.166667,763.636364 800,731.090909 800,690.909091 L800,145.454545 C800,105.272727 770.166667,72.7272727 733.333333,72.7272727 L733.333333,72.7272727 Z" id="Shape" fill="url(#linearGradient-5)"></path>
                                <path d="M566.666667,0 C500,0 400,36.3636364 400,36.3636364 C400,36.3636364 300,0 233.333333,0 C166.666667,0 66.6666667,36.3636364 66.6666667,36.3636364 L66.6666667,690.909091 C66.6666667,690.909091 166.666667,654.545455 233.333333,654.545455 C300,654.545455 400,690.909091 400,690.909091 C400,690.909091 500,654.545455 566.666667,654.545455 C633.333333,654.545455 733.333333,690.909091 733.333333,690.909091 L733.333333,36.3636364 C733.333333,36.3636364 633.333333,0 566.666667,0 L566.666667,0 Z" id="Shape" fill="#F7F0E3"></path>
                            </g>
                        </g>
                    </g>
                </g>
                <g id="radio_waves" mask="url(#mask-2)">
                    <g transform="translate(263.000000, 257.000000)" id="Layer_1">
                        <g>
                            <ellipse id="Oval" fill="url(#linearGradient-5)" sketch:type="MSShapeGroup" cx="249" cy="202" rx="38.3076923" ry="38.3636364"></ellipse>
                            <path d="M102.722077,0.514181818 C40.5678462,45.86 -7.10542736e-15,119.096182 -7.10542736e-15,202 C-7.10542736e-15,284.903818 40.5678462,358.14 102.722077,403.485818" id="Shape" stroke="url(#linearGradient-5)" stroke-width="40" stroke-linecap="round" sketch:type="MSShapeGroup"></path>
                            <path d="M395.277923,403.485818 C457.432154,358.14 498,284.903818 498,202 C498,119.096182 457.432154,45.86 395.277923,0.514181818" id="Shape" stroke="url(#linearGradient-5)" stroke-width="40" stroke-linecap="round" sketch:type="MSShapeGroup"></path>
                            <path d="M153.364846,58.4049091 C107.108308,89.3643636 76.6153846,142.095182 76.6153846,202 C76.6153846,261.904818 107.108308,314.635636 153.364846,345.595091" id="Shape" stroke="url(#linearGradient-5)" stroke-width="40" stroke-linecap="round" sketch:type="MSShapeGroup"></path>
                            <path d="M344.635154,345.595091 C390.891692,314.635636 421.384615,261.904818 421.384615,202 C421.384615,142.095182 390.891692,89.3643636 344.635154,58.4049091" id="Shape" stroke="url(#linearGradient-5)" stroke-width="40" stroke-linecap="round" sketch:type="MSShapeGroup"></path>
                            <path d="M204.907846,117.331455 C174.338308,133.348273 153.230769,165.036636 153.230769,202 C153.230769,238.963364 174.338308,270.651727 204.907846,286.668545" id="Shape" stroke="url(#linearGradient-5)" stroke-width="40" stroke-linecap="round" sketch:type="MSShapeGroup"></path>
                            <path d="M293.092154,286.668545 C323.661692,270.651727 344.769231,238.963364 344.769231,202 C344.769231,165.036636 323.661692,133.348273 293.092154,117.331455" id="Shape" stroke="url(#linearGradient-5)" stroke-width="40" stroke-linecap="round" sketch:type="MSShapeGroup"></path>
                        </g>
                    </g>
                </g>
            </g>
        </g>
    </g>
</svg>